/* XPM */
static const char * complete_xpm[] = {
"17 14 63 1",
" 	c None",
".	c #183AE2",
"+	c #FF0000",
"@	c #FF0D82",
"#	c #940BB8",
"$	c #112EFF",
"%	c #002BF6",
"&	c #0F33E1",
"*	c #0F2EFF",
"=	c #9B0BB0",
"-	c #0823FF",
";	c #FFECFF",
">	c #120000",
",	c #B7B1AB",
"'	c #000EFF",
")	c #0000D2",
"!	c #B4B2AE",
"~	c #000000",
"{	c #D4F7FF",
"]	c #0053FF",
"^	c #E0F979",
"/	c #111900",
"(	c #FFFFFF",
"_	c #DCE9FF",
":	c #D0FD89",
"<	c #0049FF",
"[	c #001CFF",
"}	c #C4CBFF",
"|	c #8083E1",
"1	c #6068E3",
"2	c #FFFF9B",
"3	c #FFFF78",
"4	c #C5CBFF",
"5	c #1D48FF",
"6	c #000DFF",
"7	c #FFFF00",
"8	c #4F4000",
"9	c #3B2C00",
"0	c #0000FF",
"a	c #1538E3",
"b	c #1638E3",
"c	c #616F41",
"d	c #D2C400",
"e	c #EFDD00",
"f	c #627041",
"g	c #1639E3",
"h	c #1739E2",
"i	c #0001F3",
"j	c #2A4CFF",
"k	c #2356FF",
"l	c #0000D7",
"m	c #7287EF",
"n	c #1D47FF",
"o	c #2964FF",
"p	c #1537E1",
"q	c #1844FF",
"r	c #0000D1",
"s	c #0000D0",
"t	c #2561FF",
"u	c #0000D6",
"v	c #2560FF",
"w	c #2041E3",
"x	c #2142E3",
"     ......      ",
"  ++@#$%&%*= ++  ",
"   -;>,')'!~{    ",
"   ]^~/(_(/~:<   ",
"   [}|12321|4' 5 ",
" 5 67789~98770a. ",
" .b0c7de7ed7f0g5 ",
" 5hij(((((((jihk ",
" khlm(((((((mln  ",
" op)((((((((()   ",
"  qr(((((((((r   ",
"   s(((((((((s   ",
"  tu(((((((((uv  ",
"  .w(((((((((x   "};
