/* XPM */
static char * divide_xpm[] = {
"17 14 57 1",
" 	c None",
".	c #F931F9",
"+	c #FF0000",
"@	c #FF0791",
"#	c #FF02CE",
"$	c #FF20FF",
"%	c #FF21FF",
"&	c #F92AF9",
"*	c #FF01C9",
"=	c #FF15FF",
"-	c #FFEAFF",
";	c #000000",
">	c #ADB4AB",
",	c #FF01FF",
"'	c #F600F6",
")	c #ADB4AE",
"!	c #FFF2FF",
"~	c #FF3EFF",
"{	c #35FF68",
"]	c #001C00",
"^	c #FFFFFF",
"/	c #FFE7FF",
"(	c #35FF7A",
"_	c #FF35FF",
":	c #CBCCFF",
"<	c #5F84DE",
"[	c #5468E1",
"}	c #FFFF98",
"|	c #FFFF73",
"1	c #FF00FF",
"2	c #FF3DFF",
"3	c #FF0AFF",
"4	c #FFFF00",
"5	c #4E4000",
"6	c #3B2C00",
"7	c #F92FFA",
"8	c #FF6A51",
"9	c #CFC400",
"0	c #EFDD00",
"a	c #F700FF",
"b	c #F930FA",
"c	c #FD44FF",
"d	c #F931FA",
"e	c #FF49FF",
"f	c #FF55FF",
"g	c #F930F9",
"h	c #F700F7",
"i	c #FC81FC",
"j	c #FF3CFF",
"k	c #F92FF9",
"l	c #FEFFFE",
"m	c #F92CF9",
"n	c #F500F5",
"o	c #FF45FF",
"p	c #FF51FF",
"q	c #F938F9",
"r	c #F939F9",
"     ......      ",
"  ++@#$%&%%* ++  ",
"   =-;>,',);!    ",
"   ~{;]^/^];(_   ",
"   =:<[}|}[<:1 2 ",
"   34456;654417. ",
"   1849040948ab2 ",
"  2ac^^^^^^^cade ",
" fghi^^^^^^^ihj  ",
" fk'l^^^^^^^l'   ",
" fmn^^^^^^^^^n   ",
"   n^^^^^^^^^n   ",
"  o'^^^^^^^^^'p  ",
" ..q^^^^^^^^^r   "};
