/* XPM */
static char * download_xpm[] = {
"17 14 67 1",
" 	c None",
".	c #30F253",
"+	c #FF0000",
"@	c #FF8C1D",
"#	c #ACC924",
"$	c #30FF4E",
"%	c #17FF49",
"&	c #29F14D",
"*	c #2EFF4F",
"=	c #B3C022",
"-	c #2BFF47",
";	c #FFFFF3",
">	c #030000",
",	c #B6ABB2",
"'	c #00FF38",
")	c #00EB00",
"!	c #B4AEB3",
"~	c #000000",
"{	c #DDFFFF",
"]	c #00FF8C",
"^	c #CE6DE6",
"/	c #080023",
"(	c #FFFFFF",
"_	c #E0FFFF",
":	c #BF7EEC",
"<	c #00FF7E",
"[	c #13FF8C",
"}	c #C3D1FF",
"|	c #7C69F6",
"1	c #5F5DEB",
"2	c #FFFFB0",
"3	c #FFFF94",
"4	c #00FF63",
"5	c #3CFF67",
"6	c #07FF79",
"7	c #FFFF00",
"8	c #FFF100",
"9	c #4F3F00",
"0	c #3B2C00",
"a	c #00FE54",
"b	c #2DF252",
"c	c #00FF6F",
"d	c #73F400",
"e	c #FFF200",
"f	c #D2C200",
"g	c #EFDD00",
"h	c #00F25A",
"i	c #2FF253",
"j	c #00F03A",
"k	c #41F9A4",
"l	c #47FF7B",
"m	c #53FF8F",
"n	c #2FF252",
"o	c #00ED13",
"p	c #82F795",
"q	c #3BFF66",
"r	c #2EF251",
"s	c #FFFEFF",
"t	c #2BF24F",
"u	c #00E900",
"v	c #00EC00",
"w	c #44FF78",
"x	c #00EB07",
"y	c #00EB06",
"z	c #4FFF8C",
"A	c #37F259",
"B	c #38F35A",
"     ......      ",
"  ++@#$%&%*= ++  ",
"   -;>,')'!~{    ",
"   ]^~/(_(/~:<   ",
"   [}|12321|}4 5 ",
"   67890~0987ab. ",
"   cdefg7gfedhi5 ",
"  5jk(((((((kj.l ",
" mnop(((((((poq  ",
" mr)s(((((((s)   ",
" mtu(((((((((v   ",
"   v((((((((()   ",
"  wx(((((((((yz  ",
" ..A(((((((((B   "};
