/* XPM */
static const char * error_xpm[] = {
"17 14 51 1",
" 	c None",
".	c #FF3232",
"+	c #FF0000",
"@	c #FF1717",
"#	c #FF2B2B",
"$	c #FF0E0E",
"%	c #FF0A0A",
"&	c #E3FBFB",
"*	c #E3ECEC",
"=	c #E3EDED",
"-	c #E3FFFF",
";	c #FF1414",
">	c #FF3939",
",	c #FFFFFF",
"'	c #068F8F",
")	c #3EA0B3",
"!	c #FFE6FF",
"~	c #FF3D3D",
"{	c #FF052C",
"]	c #FF176F",
"^	c #9FCBFF",
"/	c #6F87FF",
"(	c #F4FF9C",
"_	c #FFFF9B",
":	c #FF186F",
"<	c #FF0020",
"[	c #FF1949",
"}	c #FFFF00",
"|	c #EAFF00",
"1	c #3A2F00",
"2	c #342500",
"3	c #000000",
"4	c #FF0C3F",
"5	c #FF003B",
"6	c #FF6A00",
"7	c #FFFF0A",
"8	c #CFC500",
"9	c #EFDD00",
"0	c #FF0030",
"a	c #E22C2D",
"b	c #FF3E3E",
"c	c #FF000F",
"d	c #FF4685",
"e	c #FF0011",
"f	c #FF3334",
"g	c #FF5656",
"h	c #FF3131",
"i	c #FF8383",
"j	c #FF3030",
"k	c #FF2D2D",
"l	c #FF4747",
"     ......      ",
"  +++++@#@++ ++  ",
"   $%&*+++=-;    ",
"   >,'),!,)',~   ",
"   {]^/(_(/^:<   ",
"   [}|12321|}4   ",
"   56789}98760a  ",
"  bcd,,,,,,,def  ",
" gh+i,,,,,,,i+hg ",
" gj+,,,,,,,,,+jg ",
" gk+,,,,,,,,,+kg ",
"   +,,,,,,,,,+   ",
"  l+,,,,,,,,,+l  ",
" ..>,,,,,,,,,>.. "};
