/* XPM */
static char * lock_xpm[] = {
"17 14 44 1",
" 	c None",
".	c #D8D0D0",
"+	c #FF0000",
"@	c #FF7575",
"#	c #FFA6A6",
"$	c #FFEDED",
"%	c #E2E0E0",
"&	c #D7CECE",
"*	c #FFEFEF",
"=	c #FF9F9F",
"-	c #FFFFFF",
";	c #000000",
">	c #ADADAD",
",	c #FEF8F8",
"'	c #C2B6B6",
")	c #ADAFAF",
"!	c #4E8787",
"~	c #4B9595",
"{	c #CAD1FF",
"]	c #646DE4",
"^	c #555FE4",
"/	c #FFFF9E",
"(	c #FFFF7B",
"_	c #FFFF00",
":	c #FFFB00",
"<	c #4E3F00",
"[	c #3B2C00",
"}	c #FFF6FF",
"|	c #EDDD32",
"1	c #FFFC00",
"2	c #CFC200",
"3	c #EFDD00",
"4	c #CAC3FF",
"5	c #CDC4DC",
"6	c #DEDBFF",
"7	c #CABEBE",
"8	c #E7E2E2",
"9	c #D8CFCF",
"0	c #C6B9B9",
"a	c #D7CFCF",
"b	c #C1B6B6",
"c	c #C2B4B4",
"d	c #C6BABA",
"e	c #D9D2D2",
"     ......      ",
"  ++@#$%&%*= ++  ",
"   --;>,',);-    ",
"   -!;;---;;~-   ",
"   -{]^/(/^]{-   ",
"   -_:<[;[<:_-   ",
"   }|123_321|4-  ",
"  -56-------65.  ",
" -.78-------87.- ",
" -90---------09- ",
" -ab---------ba- ",
"   c---------c   ",
"  -d---------d-  ",
" ..e---------e.. "};
