/* XPM */
static char * lockon_xpm[] = {
"23 23 97 2",
"  	c None",
". 	c #6A6A6A",
"+ 	c #585858",
"@ 	c #4C4C4C",
"# 	c #424242",
"$ 	c #020202",
"% 	c #FFFFFF",
"& 	c #F3F3F3",
"* 	c #E8E8E8",
"= 	c #D7D7D7",
"- 	c #D1D1D1",
"; 	c #A3A2A1",
"> 	c #E4E4E4",
", 	c #747474",
"' 	c #3F3F3F",
") 	c #CECECE",
"! 	c #90908F",
"~ 	c #565656",
"{ 	c #E6E6E6",
"] 	c #AAA9A8",
"^ 	c #515151",
"/ 	c #F2F2F2",
"( 	c #D5D5D5",
"_ 	c #9C9B98",
": 	c #939391",
"< 	c #383838",
"[ 	c #C6C6C6",
"} 	c #ADADAD",
"| 	c #3E3E3E",
"1 	c #303030",
"2 	c #A2A2A2",
"3 	c #545454",
"4 	c #C0C0C0",
"5 	c #000000",
"6 	c #979797",
"7 	c #434343",
"8 	c #E0E0E0",
"9 	c #776D2C",
"0 	c #100F06",
"a 	c #302C12",
"b 	c #575122",
"c 	c #514B1F",
"d 	c #45411A",
"e 	c #464219",
"f 	c #0A0903",
"g 	c #808080",
"h 	c #7A702D",
"i 	c #756B2A",
"j 	c #706629",
"k 	c #403B18",
"l 	c #655D26",
"m 	c #605A25",
"n 	c #5B5424",
"o 	c #565021",
"p 	c #514C20",
"q 	c #4F4A1D",
"r 	c #4B451B",
"s 	c #6F672E",
"t 	c #ACA768",
"u 	c #A9A464",
"v 	c #B9B579",
"w 	c #E2DEAF",
"x 	c #F8F6E7",
"y 	c #F5F1D9",
"z 	c #AAA565",
"A 	c #746C35",
"B 	c #978F4C",
"C 	c #D5D09D",
"D 	c #F6F2D9",
"E 	c #E3DFB0",
"F 	c #D3CE9A",
"G 	c #C3C086",
"H 	c #B4AF70",
"I 	c #ADA868",
"J 	c #A7A060",
"K 	c #A09857",
"L 	c #8E8641",
"M 	c #605A2C",
"N 	c #DCD8A6",
"O 	c #8F884E",
"P 	c #756E3A",
"Q 	c #DCDCDC",
"R 	c #E7E7E7",
"S 	c #DDDDDD",
"T 	c #D2D2D2",
"U 	c #C8C8C8",
"V 	c #BFBFBF",
"W 	c #B5B5B5",
"X 	c #ABABAB",
"Y 	c #A0A0A0",
"Z 	c #766D2B",
"` 	c #D7D2A0",
" .	c #847C3D",
"..	c #B1AA6E",
"+.	c #5F5825",
"@.	c #353114",
"#.	c #4E491F",
"                . + @ # $ +                   ",
"              . % & * = - ; +                 ",
"            . % > , + ' . ) ! +               ",
"            ~ { +         ' ] +               ",
"          ^ / ( +         + _ : ^             ",
"          < [ +             ' } |             ",
"          1 2 3             + 4 5             ",
"          5 6 7             + 8 5             ",
"        9 0 6 a b b c d e e f g 5 5           ",
"      h i j k l m n o b p p q 5 e r 5         ",
"      h s t u v w x % % y w z u A o 5         ",
"      h B C D E F G H I J K B L M b 5         ",
"      ~ B N D E F G H I J K B O P b 5         ",
"      + 2 Q % R S T U V W X Y 6 A b 5         ",
"      + 2 Q % R S T U V W X Y 6 A b 5         ",
"      + 2 Q % R S T U V W X Y 6 A b 5         ",
"      + 2 Q % R S T U V W X Y 6 A b 5         ",
"      + 2 Q % R S T U V W X Y 6 A b 5         ",
"      + 2 Q % R S T U V W X Y 6 A b 5         ",
"      Z B ` D E F G H I J K B L A b 5         ",
"      h  ...D E F G H I J K B A +.@.5         ",
"        #.5 5 5 5 5 5 5 5 5 5 5 5 5           ",
"                                              "};
