/* XPM */
static char * moveup_xpm[] = {
"23 23 101 2",
"  	c None",
". 	c #000000",
"+ 	c #0C3651",
"@ 	c #7495B3",
"# 	c #106589",
"$ 	c #050E1A",
"% 	c #83A7C2",
"& 	c #DDEFF8",
"* 	c #17A4C2",
"= 	c #050F1C",
"- 	c #7C9AB5",
"; 	c #FDFAFD",
"> 	c #BCDEEB",
", 	c #21CCDC",
"' 	c #10A2C7",
") 	c #05101C",
"! 	c #819EBA",
"~ 	c #FDFCFD",
"{ 	c #DCEDF3",
"] 	c #79CFE2",
"^ 	c #15C2DC",
"/ 	c #3CD7E1",
"( 	c #1CB2CD",
"_ 	c #809FBB",
": 	c #E1F0F4",
"< 	c #71D1E0",
"[ 	c #19B3CE",
"} 	c #0EA0C5",
"| 	c #48DFE9",
"1 	c #1CA2C3",
"2 	c #6F9AB8",
"3 	c #DFEFF8",
"4 	c #A9CDDE",
"5 	c #59C3DA",
"6 	c #17A9C8",
"7 	c #0F9EC2",
"8 	c #0E97BF",
"9 	c #17ABD0",
"0 	c #15C1DA",
"a 	c #107EA3",
"b 	c #040A15",
"c 	c #294B6A",
"d 	c #486789",
"e 	c #2D6284",
"f 	c #107195",
"g 	c #25AECC",
"h 	c #14B5D3",
"i 	c #1192B2",
"j 	c #107093",
"k 	c #105C7F",
"l 	c #105375",
"m 	c #0D3D5C",
"n 	c #040913",
"o 	c #3F9DC0",
"p 	c #34B2CD",
"q 	c #1096BD",
"r 	c #26C3D5",
"s 	c #030810",
"t 	c #050405",
"u 	c #98CFE1",
"v 	c #96D8E9",
"w 	c #32AFCF",
"x 	c #1197B9",
"y 	c #46D6DF",
"z 	c #13678E",
"A 	c #07182A",
"B 	c #35566E",
"C 	c #E4F4F9",
"D 	c #C4EAF3",
"E 	c #81C9DB",
"F 	c #118EB0",
"G 	c #43D5DE",
"H 	c #136890",
"I 	c #061625",
"J 	c #234760",
"K 	c #CBEDF4",
"L 	c #99D3E4",
"M 	c #1191B2",
"N 	c #A8E1EF",
"O 	c #7BC5DE",
"P 	c #1191B3",
"Q 	c #20C2D5",
"R 	c #11658C",
"S 	c #CCEBF5",
"T 	c #64B6D1",
"U 	c #40A2C3",
"V 	c #1397B8",
"W 	c #15BDD6",
"X 	c #116182",
"Y 	c #061727",
"Z 	c #2C5371",
"` 	c #25678A",
" .	c #0F5F84",
"..	c #106187",
"+.	c #0F4364",
"@.	c #05111E",
"#.	c #010308",
"$.	c #051320",
"%.	c #061221",
"&.	c #040D17",
"*.	c #020207",
"                                              ",
"                                              ",
"        . . . . . . . . . . . . . .           ",
"        . . . . . . . . . . . . . .           ",
"                  + @ # $                     ",
"                + % & * # =                   ",
"              + - ; > , ' # )                 ",
"            + ! ~ { ] ^ / ( # =               ",
"          + _ ~ : < [ } ^ | 1 # =             ",
"        + 2 3 4 5 6 7 8 9 0 / a # b           ",
"      + c d e f g 7 8 8 h i j k l m n         ",
"    + m m m m m o p 7 q r i m m m m m s       ",
"              t u v w x y z A                 ",
"              B C D E F G H I                 ",
"              J ; K L M y H I                 ",
"              + ; N O P Q R I                 ",
"              + S T U V W X Y                 ",
"              + Z `  .....+.@.                ",
"              #.$ $.%.$.$.&.*.                ",
"                                              ",
"                                              ",
"                                              ",
"                                              "};
