/* XPM */
static const char * movedown_xpm[] = {
"23 23 71 1",
" 	c None",
".	c #0D3652",
"+	c #0E3753",
"@	c #254A63",
"#	c #30536B",
"$	c #1B415C",
"%	c #94C1D5",
"&	c #CDE1EC",
"*	c #E1EBF2",
"=	c #DFEBF5",
"-	c #D3E5F0",
";	c #1F779C",
">	c #010001",
",	c #DAEDF7",
"'	c #8FCADA",
")	c #7FBDD5",
"!	c #7CC9DE",
"~	c #8FCCE2",
"{	c #14678D",
"]	c #FEFBFE",
"^	c #BCE2EC",
"/	c #3DB9D3",
"(	c #0E95B7",
"_	c #20C2D5",
":	c #CEE9F2",
"<	c #5FC0D6",
"[	c #0E87A9",
"}	c #40D1DB",
"|	c #B5DEEC",
"1	c #44C0D7",
"2	c #0E8BAE",
"3	c #46DBE6",
"4	c #116C92",
"5	c #1A415B",
"6	c #7BC6DE",
"7	c #0EADCB",
"8	c #0E94B9",
"9	c #26C3D5",
"0	c #137194",
"a	c #0D3D5C",
"b	c #C0DFEE",
"c	c #6BBED8",
"d	c #24A9CB",
"e	c #0E9DC2",
"f	c #15C1DA",
"g	c #0F90B5",
"h	c #337F9E",
"i	c #80B6D0",
"j	c #98C7D9",
"k	c #96C3D7",
"l	c #A7D7E7",
"m	c #0E91B8",
"n	c #0E8FB6",
"o	c #0E97BF",
"p	c #0EB0CD",
"q	c #1CA2C3",
"r	c #106589",
"s	c #DFEFF8",
"t	c #A9CDDE",
"u	c #59C3DA",
"v	c #0E9FC4",
"w	c #0E91B7",
"x	c #17ABD0",
"y	c #48DFE9",
"z	c #FDFCFD",
"A	c #DCEDF3",
"B	c #0E9EC3",
"C	c #010101",
"D	c #BCDEEB",
"E	c #DDEFF8",
"F	c #000000",
"                       ",
"                       ",
"                       ",
"       .+@#$...        ",
"       .%&*=-;>        ",
"       .,')!~{>        ",
"       .]^/(_{>        ",
"       .]:<[}{>        ",
"       .]|1234>        ",
"       5]67890>        ",
"  .aaaaabcdefgaaaaaa   ",
"   >hijkl7mnfopqhr>    ",
"    >hstuvwoxfyqr>     ",
"     >hzAuBofyqr>      ",
"      ChzAuuyqr>       ",
"       >hzDyqr>        ",
"        >hEqr>         ",
"         >hr>          ",
"    FFFFFFFFFFFFFF     ",
"    FFFFFFFFFFFFFF     ",
"                       ",
"                       ",
"                       "};
