/* XPM */
static char * paste_xpm[] = {
"23 23 148 2",
"  	c None",
". 	c #123A6B",
"+ 	c #233C62",
"@ 	c #16365D",
"# 	c #0B244A",
"$ 	c #9EC0DD",
"% 	c #EDEFFA",
"& 	c #D1DFEE",
"* 	c #6294BB",
"= 	c #05101E",
"- 	c #DEEBF9",
"; 	c #5DAAD6",
"> 	c #8DBEE0",
", 	c #2A79AB",
"' 	c #040E1B",
") 	c #0D88C8",
"! 	c #3EB3D9",
"~ 	c #257CAE",
"{ 	c #040E1D",
"] 	c #0D78BC",
"^ 	c #45C0E4",
"/ 	c #1D7AB0",
"( 	c #030F1C",
"_ 	c #0B2A50",
": 	c #BDD5EC",
"< 	c #0D78B6",
"[ 	c #1B9ECE",
"} 	c #117BB8",
"| 	c #0E4471",
"1 	c #0F365E",
"2 	c #123457",
"3 	c #091D3C",
"4 	c #000000",
"5 	c #2B2B2B",
"6 	c #326D9B",
"7 	c #DDE9F6",
"8 	c #A5CEEA",
"9 	c #52A5D5",
"0 	c #0E73B3",
"a 	c #14A2D7",
"b 	c #46BFE7",
"c 	c #1C84BF",
"d 	c #104F85",
"e 	c #01030A",
"f 	c #D0CFD0",
"g 	c #FFFFFF",
"h 	c #0E7ABF",
"i 	c #0F84C0",
"j 	c #040A17",
"k 	c #E5E4E5",
"l 	c #0A0A0A",
"m 	c #CDCCCD",
"n 	c #CFCECF",
"o 	c #1489C5",
"p 	c #030710",
"q 	c #DAD9DA",
"r 	c #E7E6E7",
"s 	c #8C8B8C",
"t 	c #979697",
"u 	c #CECDCE",
"v 	c #D4D3D4",
"w 	c #DDDCDD",
"x 	c #DEDDDE",
"y 	c #BAB7BA",
"z 	c #1D1D1D",
"A 	c #626162",
"B 	c #7E7D7E",
"C 	c #ABAAAB",
"D 	c #D9D8D9",
"E 	c #DBDADB",
"F 	c #0F538C",
"G 	c #DCDBDC",
"H 	c #E2E1E2",
"I 	c #959495",
"J 	c #D3D2D3",
"K 	c #D8D7D8",
"L 	c #DFDEDF",
"M 	c #A6A5A6",
"N 	c #D2D1D2",
"O 	c #DADADA",
"P 	c #CECECE",
"Q 	c #DFDFDF",
"R 	c #D1D0D1",
"S 	c #A2A1A2",
"T 	c #010101",
"U 	c #878487",
"V 	c #858485",
"W 	c #D6D6D6",
"X 	c #DDDDDD",
"Y 	c #989798",
"Z 	c #C6C5C6",
"` 	c #D5D4D5",
" .	c #898889",
"..	c #A29FA2",
"+.	c #2A2A2A",
"@.	c #373737",
"#.	c #383838",
"$.	c #757475",
"%.	c #C9C8C9",
"&.	c #8B8A8B",
"*.	c #DCDCDC",
"=.	c #888588",
"-.	c #5B5A5B",
";.	c #3B3B3B",
">.	c #F1F1F1",
",.	c #9C999B",
"'.	c #888788",
").	c #848384",
"!.	c #CBCBCB",
"~.	c #C5C5C5",
"{.	c #E4E4E4",
"].	c #E2E2E2",
"^.	c #E0E0E0",
"/.	c #D8D8D8",
"(.	c #757575",
"_.	c #BEBEBE",
":.	c #BABABA",
"<.	c #B5B5B5",
"[.	c #D7D7D7",
"}.	c #D2D2D2",
"|.	c #D1D1D1",
"1.	c #D0D0D0",
"2.	c #C9C9C9",
"3.	c #C6C6C6",
"4.	c #C4C4C4",
"5.	c #B4B4B4",
"6.	c #AEAEAE",
"7.	c #AAAAAA",
"8.	c #A6A6A6",
"9.	c #C1C1C1",
"0.	c #C0C0C0",
"a.	c #B7B7B7",
"b.	c #B1B1B1",
"c.	c #A2A2A2",
"d.	c #9D9D9D",
"e.	c #9A9A9A",
"f.	c #969696",
"g.	c #ABABAB",
"h.	c #A3A3A3",
"i.	c #959595",
"j.	c #898989",
"k.	c #848484",
"l.	c #818181",
"m.	c #7F7F7F",
"n.	c #292929",
"o.	c #272727",
"p.	c #242424",
"q.	c #232323",
"                . . . + @ #                   ",
"                . $ % & * =                   ",
"                . - ; > , '                   ",
"                . % ) ! ~ {                   ",
"                + - ] ^ / (                   ",
"        _ . . + + : < [ } | 1 2 3 4           ",
"        5 _ 6 7 8 9 0 ] a b c d e 4           ",
"        4 f _ 6 g h ] i b c d j k 4           ",
"      l m m n _ 6 g o b c d p q r r 4         ",
"      4 s t u v _ 6 7 c d p w w x y 4         ",
"    z A B C D E E _ F d j E G G H y y 4       ",
"    4 A I J E K E G _ e G K D q L w y 4       ",
"  4 A A m m M N O G P Q G R S m J w y y T     ",
"  4 A A U V V W X P Y Z D ` V  .m ..y y T     ",
"4 +.@.#.#.$.V %.f  .&.t m *.V =.-.#.#.;.#.4   ",
"4 g >.>.>.#.V m V V V V ,.m V '.#.g >.>.>.4   ",
"4 >.g g g #.V V V V V V V V V ).#.P !.!.~.4   ",
"4 {.].^./.(.#.#.#.#.#.#.#.#.#.#.(._.:.:.<.4   ",
"4 [.}.|.1.2.3.3.3.3.3.3.3.3.3.4.5.6.7.7.8.4   ",
"4 !.9.0._.a.5.5.5.5.5.5.5.5.5.b.c.d.e.e.f.4   ",
"4 g.h.c.c.e.f.f.f.f.f.f.f.f.f.i.j.k.l.l.m.4   ",
"  +.+.+.+.n.o.o.o.o.o.o.o.o.o.o.p.q.q.q.q.    ",
"                                              "};
