/* XPM */
static const char * pause_xpm[] = {
"23 23 37 1",
" 	c None",
".	c #010101",
"+	c #040404",
"@	c #090909",
"#	c #0D0D0D",
"$	c #C0C0C0",
"%	c #A4A4A4",
"&	c #909090",
"*	c #515151",
"=	c #181818",
"-	c #B1B1B1",
";	c #E8E8E8",
">	c #B7B7B7",
",	c #1A1A1A",
"'	c #AEAEAE",
")	c #FFFFFF",
"!	c #929292",
"~	c #727272",
"{	c #0C0C0C",
"]	c #141414",
"^	c #ACACAC",
"/	c #0E0E0E",
"(	c #0F0F0F",
"_	c #AFAFAF",
":	c #737373",
"<	c #A3A3A3",
"[	c #979797",
"}	c #8B8B8B",
"|	c #949494",
"1	c #101010",
"2	c #6F6F6F",
"3	c #E6E6E6",
"4	c #000000",
"5	c #222222",
"6	c #6B6B6B",
"7	c #DCDCDC",
"8	c #616161",
"                       ",
"                       ",
"                       ",
"                       ",
"                       ",
"    .+@@+.  .+@@+.     ",
"    #$%&*+  #$%&*+     ",
"    =-;>*@  =-;>*@     ",
"    ,')!~{  ,')!~{     ",
"    ]^)!~/  ]^)!~/     ",
"    (_)!:/  (_)!:/     ",
"    /<)!:/  /<)!:/     ",
"    /[)}~/  /[)}~/     ",
"    /|)}~/  /|)}~/     ",
"    123}~4  123}~4     ",
"    567}~4  567}~4     ",
"    .8}~*4  .8}~*4     ",
"    444444  444444     ",
"                       ",
"                       ",
"                       ",
"                       ",
"                       "};
