/* XPM */
static char * pause_all_xpm[] = {
"23 23 37 1",
" 	c None",
".	c #010101",
"+	c #040404",
"@	c #090909",
"#	c #0D0D0D",
"$	c #C0C0C0",
"%	c #A4A4A4",
"&	c #909090",
"*	c #515151",
"=	c #0C0C0C",
"-	c #181818",
";	c #B1B1B1",
">	c #E8E8E8",
",	c #B7B7B7",
"'	c #E6E6E6",
")	c #1A1A1A",
"!	c #AEAEAE",
"~	c #FFFFFF",
"{	c #929292",
"]	c #727272",
"^	c #101010",
"/	c #616161",
"(	c #141414",
"_	c #ACACAC",
":	c #0E0E0E",
"<	c #0F0F0F",
"[	c #AFAFAF",
"}	c #737373",
"|	c #A3A3A3",
"1	c #979797",
"2	c #8B8B8B",
"3	c #949494",
"4	c #6F6F6F",
"5	c #000000",
"6	c #222222",
"7	c #6B6B6B",
"8	c #DCDCDC",
"                       ",
"                       ",
"                       ",
"                       ",
"                       ",
"    .+@@+.  .+@@+.     ",
"    #$%&*+  #$%&*+     ",
"  ==-;>,*@==-;>,*@==   ",
"  =')!~{]^'/)!~{]='=   ",
"  ='(_~{]:'/(_~{]:'=   ",
"  ='<[~{}:'/<[~{}:'=   ",
"  =':|~{}:'/:|~{}:'=   ",
"  =':1~2]:'/:1~2]:'=   ",
"  =':3~2]:'/:3~2]:'=   ",
"  ='^4'2]5'/^4'2]5'=   ",
"  ==6782]^^^^782]5==   ",
"    ./2]*5  ./2]*5     ",
"    555555  555555     ",
"                       ",
"                       ",
"                       ",
"                       ",
"                       "};
