/* XPM */
static const char * ready_xpm[] = {
"17 14 33 1",
" 	c None",
".	c #000000",
"+	c #FF0000",
"@	c #FC0000",
"#	c #7C0000",
"$	c #810000",
"%	c #FCE1E1",
"&	c #220000",
"*	c #B5B4B4",
"=	c #B3B4B4",
"-	c #030000",
";	c #CBE0E0",
">	c #F2FFFF",
",	c #192D40",
"'	c #FFFFFF",
")	c #D5D9FF",
"!	c #E0FFFF",
"~	c #C2C9FF",
"{	c #838CFF",
"]	c #616BEF",
"^	c #FFFFBC",
"/	c #FFFFA5",
"(	c #C3C9FF",
"_	c #FFFF00",
":	c #504000",
"<	c #3B2C00",
"[	c #504400",
"}	c #FFFF16",
"|	c #D2C500",
"1	c #EFDD00",
"2	c #131757",
"3	c #646464",
"4	c #080808",
"     ......      ",
"  ++@#.....$ ++  ",
"   .%&*...=-;    ",
"   .>.,')',.!.   ",
"   .~{]^/^]{(.   ",
"   .__:<.<:__.   ",
"   .[}|1_1|}[..  ",
"  ..2'''''''2..  ",
" ...3'''''''3... ",
" ...'''''''''... ",
" ...'''''''''... ",
"   .'''''''''.   ",
"  ..'''''''''..  ",
" ..4'''''''''4.. "};
