/* XPM */
static char * stop_xpm[] = {
"17 14 58 1",
" 	c None",
".	c #BF750F",
"+	c #FF0000",
"@	c #FF3700",
"#	c #FF4700",
"$	c #EA7800",
"%	c #C47200",
"&	c #BD7006",
"*	c #EA7900",
"=	c #FF4500",
"-	c #FF7A00",
";	c #FFFAE2",
">	c #000000",
",	c #AFB0B5",
"'	c #D86B00",
")	c #9B2700",
"!	c #AEB1B5",
"~	c #FFFFE5",
"{	c #FFD800",
"]	c #61CCFF",
"^	c #00033B",
"/	c #FFFFFF",
"(	c #FFF7FF",
"_	c #5CD4FF",
":	c #FFE000",
"<	c #FFB000",
"[	c #C9CEFF",
"}	c #687BFF",
"|	c #5764EF",
"1	c #FFFFBA",
"2	c #FFFFA2",
"3	c #FF9400",
"4	c #FF8A00",
"5	c #FFFF00",
"6	c #4E4000",
"7	c #3B2C00",
"8	c #E16B00",
"9	c #D76802",
"0	c #DC9A00",
"a	c #FFFF14",
"b	c #D0C300",
"c	c #EFDD00",
"d	c #A84C00",
"e	c #ED9113",
"f	c #AC4E00",
"g	c #C78465",
"h	c #FFCA1A",
"i	c #BF750E",
"j	c #A74200",
"k	c #D8AA6D",
"l	c #BE730C",
"m	c #9F3100",
"n	c #BD720A",
"o	c #9A2700",
"p	c #992200",
"q	c #FFAB12",
"r	c #A33800",
"s	c #C17A17",
"     ......      ",
"  ++@#$%&%*= ++  ",
"   -;>,')'!>~    ",
"   {]>^/(/^>_:   ",
"   <[}|121|}[3   ",
"   45567>76558   ",
"   90abc5cba0de  ",
"  efg///////gf.  ",
" hijk///////kjih ",
" hlm/////////mlh ",
" hno/////////onh ",
"   p/////////p   ",
"  qr/////////rq  ",
" ..s/////////s.. "};
