/* XPM */
static const char * track_xpm[] = {
"23 23 83 1",
" 	c None",
".	c #14110D",
"+	c #0F0D0A",
"@	c #000000",
"#	c #261F19",
"$	c #392F27",
"%	c #544438",
"&	c #554539",
"*	c #322921",
"=	c #0A0807",
"-	c #100D0B",
";	c #3E3229",
">	c #4B3D31",
",	c #57473A",
"'	c #554538",
")	c #4D3F33",
"!	c #110E0B",
"~	c #14100D",
"{	c #42362C",
"]	c #4F4035",
"^	c #5A4A3C",
"/	c #615041",
"(	c #564639",
"_	c #2B231D",
":	c #FFFFFF",
"<	c #524337",
"[	c #58483B",
"}	c #645243",
"|	c #5E4E3F",
"1	c #4C3E32",
"2	c #44382D",
"3	c #080605",
"4	c #060504",
"5	c #493C31",
"6	c #4C3E33",
"7	c #514236",
"8	c #5E4C3E",
"9	c #4E4034",
"0	c #251F19",
"a	c #070605",
"b	c #4A3C32",
"c	c #46392F",
"d	c #4A3C31",
"e	c #2B231C",
"f	c #15110E",
"g	c #28201A",
"h	c #352B24",
"i	c #1F1A15",
"j	c #2D241E",
"k	c #231C17",
"l	c #201A15",
"m	c #483B30",
"n	c #4D3F34",
"o	c #241D18",
"p	c #46392E",
"q	c #332A22",
"r	c #241E18",
"s	c #57483A",
"t	c #4C3F33",
"u	c #40342A",
"v	c #4B3D32",
"w	c #40342B",
"x	c #2D251E",
"y	c #191511",
"z	c #3E332A",
"A	c #44372D",
"B	c #45392F",
"C	c #1B1612",
"D	c #4D4034",
"E	c #372D25",
"F	c #120E0C",
"G	c #3B3027",
"H	c #41352B",
"I	c #3A2F27",
"J	c #302720",
"K	c #1C1713",
"L	c #28211B",
"M	c #13100D",
"N	c #3C3128",
"O	c #17120F",
"P	c #2E261F",
"Q	c #342B23",
"R	c #27201A",
"              ..+      ",
"           @#$%&*=     ",
"          -;>,'))!     ",
"         ~{]^/'(_:     ",
"         #<[}|123      ",
"        45678)90:      ",
"        abc6de!:       ",
"        :fghi::        ",
"      jk ::::    @@    ",
"     lmno      @@pq@   ",
"     rbst@    @2uvw@   ",
"     :x@y:   @v5zcA@   ",
"      :::    @B6)<C:   ",
"            oDc{6EF    ",
"            @vGHc_@    ",
"            @AIwJ@:    ",
"            Kww@@:     ",
"          = :@@::      ",
"         LdM ::        ",
"         @7NO          ",
"         PQR-          ",
"         :@@:          ",
"                       "};
