/* XPM */
static char * trash_xpm[] = {
"23 23 107 2",
"  	c None",
". 	c #000000",
"+ 	c #494949",
"@ 	c #505050",
"# 	c #383838",
"$ 	c #818181",
"% 	c #101010",
"& 	c #282828",
"* 	c #2B2B2B",
"= 	c #212121",
"- 	c #DCDCDC",
"; 	c #F7F7F7",
"> 	c #DEDEDE",
", 	c #696969",
"' 	c #6D6D6D",
") 	c #717171",
"! 	c #3C3C3C",
"~ 	c #9A9A9A",
"{ 	c #B2B2B2",
"] 	c #989898",
"^ 	c #0F0F0F",
"/ 	c #939393",
"( 	c #EBEBEB",
"_ 	c #F6F6F6",
": 	c #FBFBFB",
"< 	c #D9D9D9",
"[ 	c #BABABA",
"} 	c #BCBCBC",
"| 	c #585858",
"1 	c #151515",
"2 	c #8C8C8C",
"3 	c #C0C0C0",
"4 	c #B3B3B3",
"5 	c #929292",
"6 	c #7D7D7D",
"7 	c #232323",
"8 	c #909090",
"9 	c #B4B4B4",
"0 	c #B8B8B8",
"a 	c #DADADA",
"b 	c #E4E4E4",
"c 	c #F2F2F2",
"d 	c #E8E8E8",
"e 	c #E0E0E0",
"f 	c #7B7B7B",
"g 	c #858585",
"h 	c #8F8F8F",
"i 	c #777777",
"j 	c #4D4D4D",
"k 	c #D7D7D7",
"l 	c #AFAFAF",
"m 	c #9C9C9C",
"n 	c #747474",
"o 	c #787878",
"p 	c #707070",
"q 	c #444444",
"r 	c #6C6C6C",
"s 	c #8A8A8A",
"t 	c #C2C2C2",
"u 	c #CDCDCD",
"v 	c #D8D8D8",
"w 	c #A0A0A0",
"x 	c #949494",
"y 	c #6E6E6E",
"z 	c #616161",
"A 	c #272727",
"B 	c #080808",
"C 	c #9F9F9F",
"D 	c #C3C3C3",
"E 	c #8B8B8B",
"F 	c #757575",
"G 	c #4F4F4F",
"H 	c #373737",
"I 	c #131313",
"J 	c #BEBEBE",
"K 	c #CCCCCC",
"L 	c #BBBBBB",
"M 	c #4C4C4C",
"N 	c #2C2C2C",
"O 	c #999999",
"P 	c #ABABAB",
"Q 	c #C5C5C5",
"R 	c #919191",
"S 	c #E9E9E9",
"T 	c #8E8E8E",
"U 	c #A4A4A4",
"V 	c #C6C6C6",
"W 	c #6F6F6F",
"X 	c #8D8D8D",
"Y 	c #323232",
"Z 	c #A5A5A5",
"` 	c #CBCBCB",
" .	c #5D5D5D",
"..	c #E7E7E7",
"+.	c #F9F9F9",
"@.	c #565656",
"#.	c #202020",
"$.	c #020202",
"%.	c #1B1B1B",
"&.	c #D1D1D1",
"*.	c #B7B7B7",
"=.	c #838383",
"-.	c #303030",
";.	c #363636",
">.	c #3B3B3B",
",.	c #242424",
"'.	c #191919",
"                                              ",
"                . . . .                       ",
"          . . . + @ # $ % & * =               ",
"      . . - ; > , # ' ) ! ~ { ] . .           ",
"    ^ / ( _ : < [ { } | 1 2 3 4 5 6 .         ",
"    7 8 9 0 a b c d e f g h 2 i | j .         ",
"    1 i - k l l   m m n n ) o p j q .         ",
"      . r s t u v w w w w x y z A B           ",
"      . C D r r s E s r r y F G H I           ",
"      . s J b K 9 L ] 2 2 2 y M N I           ",
"      . s J ( O P Q s R 5 y y M N I           ",
"      . s J S T U V o s 2 M W M N I           ",
"      . s J S T U Q o s 2 M y M N I           ",
"      . s J S T U Q o s 2 M y M N I           ",
"      . s J S T U V o s 2 M y M N I           ",
"      . s J S T U V o s 2 M y M N I           ",
"      . s J S T U V o s 2 M y M N I           ",
"      . X J S T U Q o s 2 M y G Y I           ",
"      . Z ` S T U V o s 2 M W  .N ^           ",
"      . } ..+.[ J V s ~ 2 ' ' @.#.$.          ",
"        %.. U ` &.*.w w =.@.H -..             ",
"            . ;.>.Y Y Y ,.'..                 ",
"                                              "};
