/* XPM */
static char * unlock_xpm[] = {
"23 23 99 2",
"  	c None",
". 	c #6A6A6A",
"+ 	c #585858",
"@ 	c #4C4C4C",
"# 	c #424242",
"$ 	c #020202",
"% 	c #FFFFFF",
"& 	c #F3F3F3",
"* 	c #E8E8E8",
"= 	c #D7D7D7",
"- 	c #D1D1D1",
"; 	c #A3A2A1",
"> 	c #E4E4E4",
", 	c #747474",
"' 	c #3F3F3F",
") 	c #CECECE",
"! 	c #90908F",
"~ 	c #565656",
"{ 	c #E6E6E6",
"] 	c #AAA9A8",
"^ 	c #515151",
"/ 	c #F2F2F2",
"( 	c #D5D5D5",
"_ 	c #9C9B98",
": 	c #939391",
"< 	c #383838",
"[ 	c #C6C6C6",
"} 	c #ADADAD",
"| 	c #3E3E3E",
"1 	c #303030",
"2 	c #A2A2A2",
"3 	c #545454",
"4 	c #C0C0C0",
"5 	c #000000",
"6 	c #979797",
"7 	c #434343",
"8 	c #E0E0E0",
"9 	c #776D2C",
"0 	c #72692A",
"a 	c #635D26",
"b 	c #575122",
"c 	c #514B1F",
"d 	c #45411A",
"e 	c #464219",
"f 	c #0A0903",
"g 	c #808080",
"h 	c #2E2E2E",
"i 	c #7A702D",
"j 	c #756B2A",
"k 	c #706629",
"l 	c #6B6228",
"m 	c #655D26",
"n 	c #605A25",
"o 	c #5B5424",
"p 	c #565021",
"q 	c #514C20",
"r 	c #4F4A1D",
"s 	c #544E21",
"t 	c #4B451B",
"u 	c #6F672E",
"v 	c #ACA768",
"w 	c #A9A464",
"x 	c #B9B579",
"y 	c #E2DEAF",
"z 	c #F8F6E7",
"A 	c #F5F1D9",
"B 	c #AAA565",
"C 	c #746C35",
"D 	c #978F4C",
"E 	c #D5D09D",
"F 	c #F6F2D9",
"G 	c #E3DFB0",
"H 	c #D3CE9A",
"I 	c #C3C086",
"J 	c #B4AF70",
"K 	c #ADA868",
"L 	c #A7A060",
"M 	c #A09857",
"N 	c #8E8641",
"O 	c #605A2C",
"P 	c #DCD8A6",
"Q 	c #8F884E",
"R 	c #756E3A",
"S 	c #DCDCDC",
"T 	c #E7E7E7",
"U 	c #DDDDDD",
"V 	c #D2D2D2",
"W 	c #C8C8C8",
"X 	c #BFBFBF",
"Y 	c #B5B5B5",
"Z 	c #ABABAB",
"` 	c #A0A0A0",
" .	c #766D2B",
"..	c #D7D2A0",
"+.	c #847C3D",
"@.	c #B1AA6E",
"#.	c #5F5825",
"$.	c #353114",
"%.	c #4E491F",
"                          . + @ # $ +         ",
"                        . % & * = - ; +       ",
"                      . % > , + ' . ) ! +     ",
"                      ~ { +         ' ] +     ",
"                    ^ / ( +         + _ : ^   ",
"                    < [ +             ' } |   ",
"                    1 2 3             + 4 5   ",
"                    5 6 7             + 8 5   ",
"  9 0 a b b b c d e f g 5 5 5         + h 5   ",
"i j k l m n o p b q r 5 e s t 5               ",
"i u v w x y z % % A y B w C p 5               ",
"i D E F G H I J K L M D N O b 5               ",
"~ D P F G H I J K L M D Q R b 5               ",
"+ 2 S % T U V W X Y Z ` 6 C b 5               ",
"+ 2 S % T U V W X Y Z ` 6 C b 5               ",
"+ 2 S % T U V W X Y Z ` 6 C b 5               ",
"+ 2 S % T U V W X Y Z ` 6 C b 5               ",
"+ 2 S % T U V W X Y Z ` 6 C b 5               ",
"+ 2 S % T U V W X Y Z ` 6 C b 5               ",
" .D ..F G H I J K L M D N C b 5               ",
"i +.@.F G H I J K L M D C #.$.5               ",
"  %.5 5 5 5 5 5 5 5 5 5 5 5 5                 ",
"                                              "};
